<svg width="430" height="430" viewBox="0 0 430 430" fill="none" xmlns="http://www.w3.org/2000/svg">
  <rect x="1" y="1" width="428" height="428" rx="20" fill="#FFFAF2" stroke="#0F2E8A" stroke-opacity=".18"/>
  <text x="22" y="34" fill="#0F2E8A" font-family="Space Grotesk,Arial" font-size="14" font-weight="700">Upcoming events</text><text x="386" y="34" fill="#65708C" font-family="Inter,Arial" font-size="9">See all</text>
  <g font-family="Inter,Arial">
    <g transform="translate(18 58)"><rect width="64" height="64" rx="10" fill="#1747B8"/><path d="m12 50 14-22 10 13 9-9 10 18Z" fill="#F4B08A"/><text x="82" y="19" fill="#0F2E8A" font-size="11" font-weight="700">Blockchain Basics for Builders</text><text x="82" y="36" fill="#65708C" font-size="8">Sat, May 26 · 10:00 AM</text><text x="82" y="50" fill="#65708C" font-size="8">KL EcoCity</text><rect x="332" y="14" width="62" height="30" rx="8" fill="#F7F1E8" stroke="#8CAD17"/><text x="363" y="33" fill="#0F2E8A" font-size="9" font-weight="700" text-anchor="middle">Join</text></g>
    <path d="M18 134h394" stroke="#0F2E8A" stroke-opacity=".1"/>
    <g transform="translate(18 148)"><rect width="64" height="64" rx="10" fill="#D96A4A"/><circle cx="32" cy="32" r="17" fill="#F7F1E8"/><path d="M23 34c5-9 13-9 18 0M26 28a6 6 0 0 1 12 0" stroke="#0F2E8A" stroke-width="2"/><text x="82" y="19" fill="#0F2E8A" font-size="11" font-weight="700">Pickleball Social KL</text><text x="82" y="36" fill="#65708C" font-size="8">Sun, May 26 · 5:00 PM</text><text x="82" y="50" fill="#65708C" font-size="8">Taman Tasik Titiwangsa</text><rect x="332" y="14" width="62" height="30" rx="8" fill="#F7F1E8" stroke="#8CAD17"/><text x="363" y="33" fill="#0F2E8A" font-size="9" font-weight="700" text-anchor="middle">Join</text></g>
    <path d="M18 224h394" stroke="#0F2E8A" stroke-opacity=".1"/>
    <g transform="translate(18 238)"><rect width="64" height="64" rx="10" fill="#B7FF2A"/><path d="M20 45V22h24v23M16 45h32M26 22v-7h12v7" stroke="#0F2E8A" stroke-width="2"/><text x="82" y="19" fill="#0F2E8A" font-size="11" font-weight="700">Creators Conference ASEAN</text><text x="82" y="36" fill="#65708C" font-size="8">Fri–Sat, May 30–31</text><text x="82" y="50" fill="#65708C" font-size="8">KL Convention Centre</text><rect x="332" y="14" width="62" height="30" rx="8" fill="#FFF2EC" stroke="#D96A4A"/><text x="363" y="33" fill="#D96A4A" font-size="9" font-weight="700" text-anchor="middle">RSVP</text></g>
    <path d="M18 314h394" stroke="#0F2E8A" stroke-opacity=".1"/>
    <g transform="translate(18 328)"><rect width="64" height="64" rx="10" fill="#DCE7F7"/><path d="M18 45 31 20l7 15 9-8 5 18Z" fill="#0F2E8A"/><text x="82" y="19" fill="#0F2E8A" font-size="11" font-weight="700">Photography Walk KL</text><text x="82" y="36" fill="#65708C" font-size="8">Sun, Jun 1 · 7:30 AM</text><text x="82" y="50" fill="#65708C" font-size="8">KLCC Park</text><rect x="332" y="14" width="62" height="30" rx="8" fill="#F7F1E8" stroke="#8CAD17"/><text x="363" y="33" fill="#0F2E8A" font-size="9" font-weight="700" text-anchor="middle">Join</text></g>
  </g>
</svg>
