<svg width="620" height="590" viewBox="0 0 620 590" fill="none" xmlns="http://www.w3.org/2000/svg">
  <rect x="1" y="1" width="618" height="588" rx="20" fill="#FFFAF2" stroke="#0F2E8A" stroke-opacity=".18"/>
  <rect x="18" y="18" width="50" height="50" rx="14" fill="#0F2E8A"/><path d="M32 49V34h22v15M37 34v-6h12v6" stroke="#B7FF2A" stroke-width="2"/>
  <text x="82" y="39" fill="#0F2E8A" font-family="Space Grotesk,Arial" font-size="16" font-weight="700">Design Guild KL</text><text x="82" y="57" fill="#65708C" font-family="Inter,Arial" font-size="10">Public guild · 2.1K members</text>
  <rect x="527" y="24" width="72" height="34" rx="9" fill="#0F2E8A"/><text x="563" y="46" fill="#FFF" font-family="Inter,Arial" font-size="10" font-weight="700" text-anchor="middle">Join</text>
  <path d="M18 83h584" stroke="#0F2E8A" stroke-opacity=".12"/><g font-family="Inter,Arial" font-size="10"><text x="28" y="108" fill="#0F2E8A" font-weight="700">Feed</text><text x="91" y="108" fill="#65708C">Events</text><text x="163" y="108" fill="#65708C">Members</text><text x="249" y="108" fill="#65708C">About</text></g><path d="M25 116h29" stroke="#D96A4A" stroke-width="2"/>
  <circle cx="42" cy="156" r="20" fill="#F4B08A"/><text x="42" y="161" fill="#0F2E8A" font-family="Inter,Arial" font-size="11" font-weight="700" text-anchor="middle">A</text><text x="74" y="150" fill="#0F2E8A" font-family="Inter,Arial" font-size="10" font-weight="700">Aisha</text><text x="74" y="166" fill="#65708C" font-family="Inter,Arial" font-size="8">10:32 AM</text><text x="28" y="199" fill="#0F2E8A" font-family="Inter,Arial" font-size="12">Just finished the new brand direction 🔥</text><text x="28" y="218" fill="#65708C" font-family="Inter,Arial" font-size="10">What do you think?</text>
  <rect x="28" y="239" width="170" height="126" rx="12" fill="#1747B8"/><path d="m48 340 50-70 31 42 27-30 23 58Z" fill="#F4B08A"/><rect x="209" y="239" width="170" height="126" rx="12" fill="#DCE7F7"/><path d="M236 332V272h116v60M250 302h88M272 272v60" stroke="#0F2E8A" stroke-width="3"/><rect x="390" y="239" width="170" height="126" rx="12" fill="#D96A4A"/><circle cx="442" cy="300" r="28" fill="#F7F1E8"/><circle cx="507" cy="300" r="28" fill="#B7FF2A"/><path d="M470 300h15" stroke="#0F2E8A" stroke-width="3"/>
  <path d="M28 390h564" stroke="#0F2E8A" stroke-opacity=".1"/><text x="32" y="416" fill="#65708C" font-family="Inter,Arial" font-size="10">♡ 24</text><text x="88" y="416" fill="#D96A4A" font-family="Inter,Arial" font-size="10">♡ 12</text>
  <circle cx="42" cy="460" r="20" fill="#DCE7F7"/><text x="42" y="465" fill="#0F2E8A" font-family="Inter,Arial" font-size="11" font-weight="700" text-anchor="middle">T</text><text x="74" y="454" fill="#0F2E8A" font-family="Inter,Arial" font-size="10" font-weight="700">Tom</text><text x="74" y="470" fill="#65708C" font-family="Inter,Arial" font-size="8">Workshop this weekend. See your post!</text>
  <rect x="74" y="487" width="355" height="63" rx="10" fill="#F7F1E8" stroke="#0F2E8A" stroke-opacity=".12"/><text x="91" y="510" fill="#D96A4A" font-family="Inter,Arial" font-size="8" font-weight="700">WORKSHOP</text><text x="91" y="531" fill="#0F2E8A" font-family="Inter,Arial" font-size="11" font-weight="700">Design Systems · Sat 10:00 AM</text>
</svg>
