<svg xmlns="http://www.w3.org/2000/svg" width="520" height="170" viewBox="0 0 520 170" fill="none">
  <rect x=".5" y=".5" width="519" height="169" rx="16" fill="#F7F1E8" fill-opacity=".96" stroke="#0F2E8A" stroke-opacity=".15"/>
  <text x="22" y="34" fill="#0F2E8A" font-family="Inter,Arial" font-size="14" font-weight="700">Host tools</text>
  <g font-family="Inter,Arial" text-anchor="middle" font-size="11" fill="#0F2E8A"><g transform="translate(22 54)"><rect width="100" height="88" rx="12" fill="#D96A4A" fill-opacity=".09"/><circle cx="50" cy="32" r="16" stroke="#D96A4A"/><path d="M50 24v16M43 28c4 3 4 11 0 14M57 28c-4 3-4 11 0 14" stroke="#D96A4A"/><text x="50" y="70">Go live</text></g><g transform="translate(146 54)"><rect width="100" height="88" rx="12" fill="#0F2E8A" fill-opacity=".05"/><circle cx="50" cy="32" r="16" stroke="#0F2E8A"/><circle cx="46" cy="29" r="4" stroke="#0F2E8A"/><path d="M38 41c2-6 14-6 16 0M60 28v12M54 34h12" stroke="#0F2E8A"/><text x="50" y="70">Invite guests</text></g><g transform="translate(270 54)"><rect width="100" height="88" rx="12" fill="#0F2E8A" fill-opacity=".05"/><rect x="35" y="22" width="30" height="20" rx="3" stroke="#D96A4A"/><path d="m46 32 4 4 7-8" stroke="#D96A4A"/><text x="50" y="70">Screen share</text></g><g transform="translate(394 54)"><rect width="100" height="88" rx="12" fill="#0F2E8A" fill-opacity=".05"/><circle cx="50" cy="32" r="15" stroke="#0F2E8A"/><circle cx="50" cy="32" r="6" fill="#D96A4A"/><text x="50" y="70">Record</text></g></g>
</svg>
