<svg xmlns="http://www.w3.org/2000/svg" width="1080" height="96" viewBox="0 0 1080 96" fill="none">
  <rect x=".5" y=".5" width="1079" height="95" rx="15" fill="#123E83" fill-opacity=".94" stroke="#F7F1E8" stroke-opacity=".24"/>
  <g font-family="Inter,Arial" fill="#F7F1E8"><g transform="translate(30 23)"><path d="M20 0 37 7v13c0 12-7 20-17 25C10 40 3 32 3 20V7L20 0Z" stroke="#B7FF2A" stroke-width="2"/><path d="m12 21 5 5 11-13" stroke="#B7FF2A" stroke-width="2"/><text x="58" y="17" font-size="14" font-weight="700">Bank-grade security</text><text x="58" y="38" font-size="12" opacity=".65">Your money is protected</text></g><g transform="translate(392 23)"><circle cx="20" cy="20" r="18" stroke="#B7FF2A" stroke-width="2"/><path d="M20 9v12l9 5" stroke="#B7FF2A" stroke-width="2"/><text x="58" y="17" font-size="14" font-weight="700">Instant &amp; low fees</text><text x="58" y="38" font-size="12" opacity=".65">More value to you</text></g><g transform="translate(744 23)"><path d="M20 0 37 7v13c0 12-7 20-17 25C10 40 3 32 3 20V7L20 0Z" stroke="#B7FF2A" stroke-width="2"/><path d="M15 22h10M20 17v10" stroke="#B7FF2A" stroke-width="2"/><text x="58" y="17" font-size="14" font-weight="700">You control</text><text x="58" y="38" font-size="12" opacity=".65">We never hold your funds</text></g></g>
</svg>
