<svg xmlns="http://www.w3.org/2000/svg" width="820" height="166" viewBox="0 0 820 166" fill="none">
  <g font-family="Inter,Arial" text-anchor="middle"><g transform="translate(16 10)"><circle cx="56" cy="56" r="54" fill="#F7F1E8" stroke="#D96A4A" stroke-width="4"/><circle cx="56" cy="56" r="45" fill="#F4B08A"/><text x="56" y="65" fill="#0F2E8A" font-size="27" font-weight="700">F</text><text x="56" y="133" fill="#0F2E8A" font-size="14">Farah</text></g><g transform="translate(150 10)"><circle cx="56" cy="56" r="54" fill="#F7F1E8" stroke="#B7FF2A" stroke-width="4"/><circle cx="56" cy="56" r="45" fill="#D96A4A"/><text x="56" y="65" fill="white" font-size="27" font-weight="700">D</text><text x="56" y="133" fill="#0F2E8A" font-size="14">Devon</text></g><g transform="translate(284 10)"><circle cx="56" cy="56" r="54" fill="#F7F1E8" stroke="#B7FF2A" stroke-width="4"/><circle cx="56" cy="56" r="45" fill="#F4B08A"/><text x="56" y="65" fill="#0F2E8A" font-size="27" font-weight="700">A</text><text x="56" y="133" fill="#0F2E8A" font-size="14">Aisyah</text></g><g transform="translate(418 10)"><circle cx="56" cy="56" r="54" fill="#F7F1E8" stroke="#B7FF2A" stroke-width="4"/><circle cx="56" cy="56" r="45" fill="#0F2E8A"/><text x="56" y="65" fill="white" font-size="27" font-weight="700">M</text><text x="56" y="133" fill="#0F2E8A" font-size="14">Marcus</text></g><g transform="translate(552 10)"><circle cx="56" cy="56" r="54" fill="#F7F1E8" stroke="#B7FF2A" stroke-width="4"/><circle cx="56" cy="56" r="45" fill="#C95A3A"/><text x="56" y="65" fill="white" font-size="27" font-weight="700">Y</text><text x="56" y="133" fill="#0F2E8A" font-size="14">You</text></g></g>
  <circle cx="742" cy="66" r="25" fill="#F7F1E8" stroke="#0F2E8A" stroke-opacity=".22"/><path d="m738 58 8 8-8 8" stroke="#0F2E8A" stroke-width="2"/>
</svg>
