<svg xmlns="http://www.w3.org/2000/svg">
  <defs>
    <style>.i{fill:none;stroke:currentColor;stroke-width:1.8;stroke-linecap:round;stroke-linejoin:round}</style>
    <symbol id="live-local" viewBox="0 0 24 24"><g class="i"><path d="M8.5 8.5a5 5 0 0 0 0 7M5.5 5.5a9 9 0 0 0 0 13M15.5 8.5a5 5 0 0 1 0 7M18.5 5.5a9 9 0 0 1 0 13"/><circle cx="12" cy="12" r="2"/></g></symbol>
    <symbol id="people" viewBox="0 0 24 24"><g class="i"><circle cx="9" cy="7" r="4"/><path d="M2 21v-2a4 4 0 0 1 4-4h6a4 4 0 0 1 4 4v2M16 3.2a4 4 0 0 1 0 7.6M22 21v-2a4 4 0 0 0-3-3.9"/></g></symbol>
    <symbol id="shield" viewBox="0 0 24 24"><g class="i"><path d="M12 22s8-4 8-10V5l-8-3-8 3v7c0 6 8 10 8 10Z"/><path d="m9 12 2 2 4-5"/></g></symbol>
    <symbol id="map" viewBox="0 0 24 24"><g class="i"><path d="m3 6 6-3 6 3 6-3v15l-6 3-6-3-6 3V6Z"/><path d="M9 3v15M15 6v15"/></g></symbol>
    <symbol id="nearby" viewBox="0 0 24 24"><g class="i"><circle cx="12" cy="8" r="4"/><path d="M4 21a8 8 0 0 1 16 0"/><path d="M18 6h4M20 4v4"/></g></symbol>
    <symbol id="events" viewBox="0 0 24 24"><g class="i"><rect x="3" y="5" width="18" height="16" rx="3"/><path d="M8 3v4M16 3v4M3 10h18"/><path d="m9 15 2 2 4-4"/></g></symbol>
    <symbol id="updates" viewBox="0 0 24 24"><g class="i"><path d="M8.5 8.5a5 5 0 0 0 0 7M5.5 5.5a9 9 0 0 0 0 13M15.5 8.5a5 5 0 0 1 0 7M18.5 5.5a9 9 0 0 1 0 13"/><circle cx="12" cy="12" r="2"/></g></symbol>
    <symbol id="guilds" viewBox="0 0 24 24"><g class="i"><path d="M4 5h16v14H4z"/><path d="M8 5V3h8v2M8 10h8M8 14h5"/></g></symbol>
    <symbol id="channels" viewBox="0 0 24 24"><g class="i"><circle cx="6" cy="6" r="3"/><circle cx="18" cy="6" r="3"/><circle cx="6" cy="18" r="3"/><circle cx="18" cy="18" r="3"/><path d="M9 6h6M6 9v6M18 9v6M9 18h6"/></g></symbol>
    <symbol id="meetup" viewBox="0 0 24 24"><g class="i"><circle cx="8" cy="8" r="3"/><circle cx="16" cy="8" r="3"/><path d="M2 20a6 6 0 0 1 12 0M10 20a6 6 0 0 1 12 0"/></g></symbol>
    <symbol id="polls" viewBox="0 0 24 24"><g class="i"><path d="M5 21V10M12 21V3M19 21v-6"/><path d="M3 21h18"/></g></symbol>
    <symbol id="fees" viewBox="0 0 24 24"><g class="i"><circle cx="12" cy="12" r="9"/><path d="M15 8.5c-.7-.5-1.5-.8-2.5-.8-1.7 0-3 .9-3 2.2 0 3.3 6 1.4 6 4.4 0 1.3-1.3 2.2-3 2.2-1.2 0-2.2-.3-3-.9M12 5v14"/></g></symbol>
    <symbol id="fund" viewBox="0 0 24 24"><g class="i"><path d="M12 21V8M7 13l5-5 5 5"/><path d="M5 3h14M4 21h16"/></g></symbol>
    <symbol id="stories" viewBox="0 0 24 24"><g class="i"><rect x="5" y="3" width="14" height="18" rx="4"/><circle cx="12" cy="10" r="3"/><path d="m10.5 16 1.5-1.5 1.5 1.5"/></g></symbol>
    <symbol id="live-rooms" viewBox="0 0 24 24"><g class="i"><path d="M8 6 4 3v18l4-3M16 6l4-3v18l-4-3"/><rect x="8" y="5" width="8" height="14" rx="4"/><circle cx="12" cy="10" r="2"/></g></symbol>
    <symbol id="host-tools" viewBox="0 0 24 24"><g class="i"><path d="M14.7 6.3a4 4 0 0 0-5 5L3 18v3h3l6.7-6.7a4 4 0 0 0 5-5l-2.3 2.3-3-3 2.3-2.3Z"/></g></symbol>
    <symbol id="go-live" viewBox="0 0 24 24"><g class="i"><circle cx="12" cy="12" r="3"/><path d="M7.8 7.8a6 6 0 0 0 0 8.4M16.2 7.8a6 6 0 0 1 0 8.4M4.9 4.9a10 10 0 0 0 0 14.2M19.1 4.9a10 10 0 0 1 0 14.2"/></g></symbol>
    <symbol id="invite" viewBox="0 0 24 24"><g class="i"><circle cx="9" cy="8" r="4"/><path d="M2 21a7 7 0 0 1 14 0M19 8v6M16 11h6"/></g></symbol>
    <symbol id="screen-share" viewBox="0 0 24 24"><g class="i"><rect x="3" y="4" width="18" height="13" rx="2"/><path d="M8 21h8M12 17v4"/><path d="m9 11 3-3 3 3M12 8v6"/></g></symbol>
    <symbol id="record" viewBox="0 0 24 24"><g class="i"><rect x="3" y="5" width="18" height="14" rx="3"/><circle cx="12" cy="12" r="4"/></g></symbol>
    <symbol id="send" viewBox="0 0 24 24"><g class="i"><path d="m22 2-7 20-4-9-9-4Z"/><path d="M22 2 11 13"/></g></symbol>
    <symbol id="wallet" viewBox="0 0 24 24"><g class="i"><path d="M3 6a3 3 0 0 1 3-3h12v18H6a3 3 0 0 1-3-3V6Z"/><path d="M18 8h3v8h-3a4 4 0 0 1 0-8Z"/></g></symbol>
    <symbol id="search" viewBox="0 0 24 24"><g class="i"><circle cx="11" cy="11" r="7"/><path d="m20 20-4-4"/></g></symbol>
    <symbol id="pin" viewBox="0 0 24 24"><g class="i"><path d="M20 10c0 5-8 12-8 12S4 15 4 10a8 8 0 1 1 16 0Z"/><circle cx="12" cy="10" r="3"/></g></symbol>
    <symbol id="message" viewBox="0 0 24 24"><g class="i"><path d="M21 15a4 4 0 0 1-4 4H8l-5 3V7a4 4 0 0 1 4-4h10a4 4 0 0 1 4 4v8Z"/><path d="M8 10h.01M12 10h.01M16 10h.01"/></g></symbol>
    <symbol id="plus" viewBox="0 0 24 24"><g class="i"><path d="M12 5v14M5 12h14"/></g></symbol>
    <symbol id="arrow" viewBox="0 0 24 24"><g class="i"><path d="M5 12h14M14 7l5 5-5 5"/></g></symbol>
    <symbol id="check" viewBox="0 0 24 24"><g class="i"><path d="m5 12 4 4L19 6"/></g></symbol>
  </defs>
</svg>
